<svg xmlns="http://www.w3.org/2000/svg" width="1184.365" height="1207.244" viewBox="0 0 1184.365 1207.244"><g transform="matrix(0.438, 0.899, -0.899, 0.438, 874.323, -226.289)"><g transform="translate(6.732 502.399)" opacity="0.53"><g transform="translate(0.002 0)"><path d="M265.324-31.572,21.917,226.231Z" transform="translate(-21.441 31.572)" fill="#fff"/><path d="M265.744-31.572,22.686,226.562l-.7-.663Zm0,0L22.686,226.562a.465.465,0,0,1-.671.017.482.482,0,0,1-.026-.68Z" transform="translate(-21.861 31.572)" fill="#6b6062"/></g><g transform="translate(0 257.321)"><g transform="translate(0 0)"><path d="M313.356,139.163,21.917-1.236Z" transform="translate(-21.439 1.718)" fill="#fff"/><path d="M313.777,139.589,22.135-.377l.416-.867Zm0,0L22.135-.377a.489.489,0,0,1-.229-.646.491.491,0,0,1,.646-.221Z" transform="translate(-21.861 1.293)" fill="#6b6062"/></g></g><g transform="translate(882.434 12.034)"><path d="M125.7-30.156,291.167,196.739Z" transform="translate(-125.698 30.156)" fill="#fff"/><path d="M125.7-30.156,291.55,196.458a.46.46,0,0,1-.1.663.476.476,0,0,1-.663-.1Zm0,0L291.55,196.458l-.765.561Z" transform="translate(-125.698 30.156)" fill="#6b6062"/></g><g transform="translate(849.971 238.447)"><g transform="translate(0 0)"><path d="M121.878,159.318,319.811-3.457Z" transform="translate(-121.878 3.938)" fill="#fff"/><path d="M121.878,159.743,319.5-3.4a.476.476,0,0,1,.68.059.482.482,0,0,1-.068.671Zm0,0L319.5-3.4l.612.731Z" transform="translate(-121.878 3.514)" fill="#6b6062"/></g></g><g transform="translate(403.363 504.566)"><path d="M69.325,27.8,291.452,140.352Z" transform="translate(-69.325 -27.801)" fill="#fff"/><path d="M69.325,27.8,291.673,139.927l-.433.858Zm0,0L291.673,139.927a.481.481,0,1,1-.433.858Z" transform="translate(-69.325 -27.801)" fill="#6b6062"/></g><g transform="translate(402.877 434.464)"><path d="M267.147,19.552,69.325,89.654Z" transform="translate(-68.84 -19.552)" fill="#fff"/><path d="M267.575,19.552,69.915,90.1l-.323-.892Zm0,0L69.915,90.1a.489.489,0,0,1-.62-.289.471.471,0,0,1,.3-.6Z" transform="translate(-69.268 -19.552)" fill="#6b6062"/></g><g transform="translate(402.878 504.082)"><path d="M170.216,193.389,69.325,27.8Z" transform="translate(-68.841 -27.317)" fill="#fff"/><path d="M170.643,193.816,69.336,28.474l.824-.5Zm0,0L69.336,28.474a.482.482,0,0,1,.161-.654.473.473,0,0,1,.663.153Z" transform="translate(-69.268 -27.744)" fill="#6b6062"/></g><g transform="translate(600.705 433.982)"><g transform="translate(0)"><path d="M116.908,202.2,92.6,19.552Z" transform="translate(-92.123 -19.07)" fill="#fff"/><path d="M117.331,202.63,92.551,20.045l.952-.127Zm0,0L92.551,20.045a.482.482,0,0,1,.408-.544.471.471,0,0,1,.544.416Z" transform="translate(-92.547 -19.495)" fill="#6b6062"/></g></g><g transform="translate(977.442 238.928)"><g transform="translate(0 0)"><path d="M206.917-3.457,136.934,154.806Z" transform="translate(-136.456 3.457)" fill="#fff"/><path d="M207.339-3.457,137.789,155l-.867-.391Zm0,0L137.789,155a.476.476,0,1,1-.867-.391Z" transform="translate(-136.878 3.457)" fill="#6b6062"/></g></g><g transform="translate(504.254 617.117)"><g transform="translate(0 0)"><path d="M202.433,41.045,81.2,94.083Z" transform="translate(-81.197 -41.045)" fill="#fff"/></g></g><g transform="translate(849.971 396.706)"><path d="M121.878,19.679l127.95-4.513Z" transform="translate(-121.878 -14.682)" fill="#fff"/><path d="M121.878,20.106l127.933-5,.034.969Zm0,0,127.933-5a.485.485,0,0,1,.034.969Z" transform="translate(-121.878 -15.109)" fill="#6b6062"/></g></g><path d="M22.328.854a6.728,6.728,0,1,1,1.683,9.365A6.73,6.73,0,0,1,22.328.854Z" transform="translate(-20.642 755.506)" fill="gray" opacity="0.484"/><path d="M126.041-28.406a5.609,5.609,0,0,1,7.818-1.4,5.618,5.618,0,0,1,1.411,7.818,5.636,5.636,0,0,1-7.827,1.411A5.637,5.637,0,0,1,126.041-28.406Z" transform="translate(758.51 539.626)" fill="gray" opacity="0.282"/><path d="M22.363,1.009a7.208,7.208,0,1,1,1.793,10.045A7.2,7.2,0,0,1,22.363,1.009Z" transform="translate(-21.069 755.079)" fill="gray" opacity="0.268"/><path d="M51-29.333A7.186,7.186,0,0,1,61-31.135a7.2,7.2,0,0,1,1.8,10,7.208,7.208,0,0,1-10.011,1.81A7.2,7.2,0,0,1,51-29.333Z" transform="translate(193.716 527.635)" fill="gray" opacity="0.186"/><path d="M126.1-28.124a6.485,6.485,0,0,1,9.025-1.64,6.48,6.48,0,0,1,1.615,9.034,6.478,6.478,0,0,1-9.025,1.623A6.477,6.477,0,0,1,126.1-28.124Z" transform="translate(757.749 538.86)" fill="gray" opacity="0.13"/><path d="M137.345,17.276a6.768,6.768,0,1,1,1.7,9.416A6.765,6.765,0,0,1,137.345,17.276Z" transform="translate(841.748 878.447)" fill="gray" opacity="0.297"/><path d="M103.8-86.96a8.678,8.678,0,0,1,12.085-2.176,8.684,8.684,0,0,1,2.167,12.085,8.674,8.674,0,0,1-12.076,2.167A8.675,8.675,0,0,1,103.8-86.96Z" transform="translate(587.651 90.69)" fill="gray" opacity="0.242"/><path d="M50.979-29.43a6.9,6.9,0,0,1,9.595-1.717,6.9,6.9,0,0,1,1.734,9.594,6.906,6.906,0,0,1-9.6,1.725A6.907,6.907,0,0,1,50.979-29.43Z" transform="translate(193.969 527.894)" fill="gray" opacity="0.181"/><path d="M69.851,30.49A8.621,8.621,0,1,1,72,42.481,8.63,8.63,0,0,1,69.851,30.49Z" transform="translate(333.164 971.554)" fill="gray" opacity="0.434"/><path d="M103.676-87.6a6.643,6.643,0,0,1,9.246-1.666,6.633,6.633,0,0,1,1.657,9.246,6.628,6.628,0,0,1-9.238,1.649A6.629,6.629,0,0,1,103.676-87.6Z" transform="translate(589.452 92.491)" fill="gray" opacity="0.191"/><path d="M22.226.316a5,5,0,1,1,1.249,6.969A5,5,0,0,1,22.226.316Z" transform="translate(-19.122 757.03)" fill="gray" opacity="0.199"/><path d="M103.64-87.8a6.008,6.008,0,0,1,8.354-1.5,6.009,6.009,0,0,1,1.5,8.362,5.99,5.99,0,0,1-8.345,1.5A6,6,0,0,1,103.64-87.8Z" transform="translate(590.015 93.051)" fill="gray" opacity="0.187"/><path d="M126.108-28.06a6.724,6.724,0,0,1,9.348-1.691,6.714,6.714,0,0,1,1.674,9.357,6.706,6.706,0,0,1-9.34,1.674A6.711,6.711,0,0,1,126.108-28.06Z" transform="translate(757.542 538.659)" fill="gray" opacity="0.313"/><path d="M51.005-29.327a7.192,7.192,0,0,1,10.019-1.8,7.2,7.2,0,0,1,1.81,10.019A7.214,7.214,0,0,1,52.8-19.3,7.2,7.2,0,0,1,51.005-29.327Z" transform="translate(193.696 527.621)" fill="gray" opacity="0.127"/><path d="M92.991,21.5a6.258,6.258,0,1,1,1.564,8.711A6.246,6.246,0,0,1,92.991,21.5Z" transform="translate(509.792 911.798)" fill="gray" opacity="0.282"/><path d="M122.221,17.459a5.635,5.635,0,1,1,1.411,7.844A5.635,5.635,0,0,1,122.221,17.459Z" transform="translate(729.858 883.43)" fill="gray" opacity="0.374"/><path d="M137.251,16.8a5.217,5.217,0,1,1,1.309,7.258A5.225,5.225,0,0,1,137.251,16.8Z" transform="translate(843.118 879.811)" fill="gray" opacity="0.383"/><path d="M145.537-1.6a5.947,5.947,0,0,1,9.765,6.79,5.947,5.947,0,0,1-9.765-6.79Z" transform="translate(904.219 739.539)" fill="gray" opacity="0.177"/><path d="M126.086-28.146a6.465,6.465,0,0,1,8.991-1.615,6.459,6.459,0,0,1,1.615,8.991,6.456,6.456,0,0,1-8.983,1.6A6.458,6.458,0,0,1,126.086-28.146Z" transform="translate(757.777 538.89)" fill="gray" opacity="0.448"/><path d="M51.056-29.061a8.058,8.058,0,0,1,11.218-2.014A8.07,8.07,0,0,1,64.3-19.857a8.073,8.073,0,0,1-11.235,2.023A8.066,8.066,0,0,1,51.056-29.061Z" transform="translate(192.94 526.862)" fill="gray" opacity="0.202"/><path d="M145.6-1.313a6.868,6.868,0,1,1,1.708,9.561A6.862,6.862,0,0,1,145.6-1.313Z" transform="translate(903.404 738.722)" fill="gray" opacity="0.275"/><path d="M122.236,17.53a5.858,5.858,0,1,1,1.47,8.15A5.867,5.867,0,0,1,122.236,17.53Z" transform="translate(729.656 883.232)" fill="gray" opacity="0.125"/><path d="M95.891,43.2a6.914,6.914,0,1,1,1.725,9.629A6.911,6.911,0,0,1,95.891,43.2Z" transform="translate(530.661 1072.377)" fill="gray" opacity="0.381"/><path d="M69.747,29.933a6.832,6.832,0,1,1,1.708,9.51A6.834,6.834,0,0,1,69.747,29.933Z" transform="translate(334.738 973.131)" fill="gray" opacity="0.284"/><path d="M145.563-1.466a6.377,6.377,0,1,1,1.589,8.881A6.389,6.389,0,0,1,145.563-1.466Z" transform="translate(903.837 739.155)" fill="gray" opacity="0.434"/><path d="M51.012-29.257a7.442,7.442,0,0,1,10.351-1.861,7.434,7.434,0,0,1,1.861,10.351A7.437,7.437,0,0,1,52.873-18.9,7.452,7.452,0,0,1,51.012-29.257Z" transform="translate(193.494 527.415)" fill="gray" opacity="0.14"/><path d="M69.75,29.971A6.991,6.991,0,1,1,71.5,39.693,7,7,0,0,1,69.75,29.971Z" transform="translate(334.6 972.999)" fill="gray" opacity="0.427"/><path d="M92.984,21.475a6.194,6.194,0,1,1,1.547,8.617A6.188,6.188,0,0,1,92.984,21.475Z" transform="translate(509.85 911.853)" fill="gray" opacity="0.422"/><path d="M139.4,50.8a5.324,5.324,0,1,1,1.326,7.419A5.325,5.325,0,0,1,139.4,50.8Z" transform="translate(859.093 1134.528)" fill="gray" opacity="0.136"/><path d="M69.712,29.765a6.283,6.283,0,1,1,1.572,8.745A6.261,6.261,0,0,1,69.712,29.765Z" transform="translate(335.224 973.613)" fill="gray" opacity="0.221"/><path d="M126.054-28.355a5.76,5.76,0,0,1,8.014-1.453,5.758,5.758,0,0,1,1.436,8.031,5.753,5.753,0,0,1-8.014,1.436A5.756,5.756,0,0,1,126.054-28.355Z" transform="translate(758.387 539.499)" fill="gray" opacity="0.268"/><path d="M137.343,17.29a6.8,6.8,0,1,1,1.717,9.45A6.808,6.808,0,0,1,137.343,17.29Z" transform="translate(841.725 878.416)" fill="gray" opacity="0.149"/><path d="M139.48,51.183a6.536,6.536,0,1,1,1.632,9.093A6.542,6.542,0,0,1,139.48,51.183Z" transform="translate(858.021 1133.454)" fill="gray" opacity="0.478"/><path d="M92.976,21.422a6.026,6.026,0,1,1,1.5,8.4A6.04,6.04,0,0,1,92.976,21.422Z" transform="translate(509.994 911.999)" fill="gray" opacity="0.431"/><path d="M95.8,42.768a5.513,5.513,0,1,1,1.377,7.682A5.512,5.512,0,0,1,95.8,42.768Z" transform="translate(531.897 1073.603)" fill="gray" opacity="0.331"/><path d="M145.626-1.15A7.412,7.412,0,1,1,147.47,9.175,7.413,7.413,0,0,1,145.626-1.15Z" transform="translate(902.924 738.244)" fill="gray" opacity="0.335"/><path d="M139.6,51.761a8.383,8.383,0,1,1,2.091,11.668A8.369,8.369,0,0,1,139.6,51.761Z" transform="translate(856.391 1131.822)" fill="gray" opacity="0.496"/><path d="M137.232,16.687a4.875,4.875,0,1,1,1.232,6.773A4.863,4.863,0,0,1,137.232,16.687Z" transform="translate(843.417 880.115)" fill="gray" opacity="0.449"/><path d="M145.651-1.007a7.873,7.873,0,1,1,1.972,10.963A7.877,7.877,0,0,1,145.651-1.007Z" transform="translate(902.517 737.839)" fill="gray" opacity="0.433"/><path d="M93,21.53a6.344,6.344,0,1,1,1.581,8.838A6.344,6.344,0,0,1,93,21.53Z" transform="translate(509.712 911.713)" fill="gray" opacity="0.414"/><path d="M126.145-27.882a7.267,7.267,0,0,1,10.13-1.827,7.272,7.272,0,0,1,1.819,10.138,7.277,7.277,0,0,1-10.13,1.81A7.27,7.27,0,0,1,126.145-27.882Z" transform="translate(757.047 538.158)" fill="gray" opacity="0.169"/><path d="M95.927,43.39A7.531,7.531,0,1,1,97.8,53.876,7.545,7.545,0,0,1,95.927,43.39Z" transform="translate(530.116 1071.826)" fill="gray" opacity="0.435"/><path d="M137.489,18a9.1,9.1,0,1,1,2.286,12.654A9.1,9.1,0,0,1,137.489,18Z" transform="translate(839.693 876.396)" fill="gray" opacity="0.369"/><path d="M122.207,17.38a5.406,5.406,0,1,1,1.36,7.512A5.4,5.4,0,0,1,122.207,17.38Z" transform="translate(730.059 883.637)" fill="gray" opacity="0.426"/><path d="M137.33,17.21a6.534,6.534,0,1,1,1.649,9.085A6.538,6.538,0,0,1,137.33,17.21Z" transform="translate(841.951 878.649)" fill="gray" opacity="0.181"/><path d="M95.908,43.277a7.137,7.137,0,1,1,1.785,9.943A7.137,7.137,0,0,1,95.908,43.277Z" transform="translate(530.458 1072.168)" fill="gray" opacity="0.269"/></g></svg>