<svg xmlns="http://www.w3.org/2000/svg" width="56.178" height="33.312" viewBox="0 0 56.178 33.312"><g transform="translate(-27.427 -21.365)"><path d="M55.446,53.38H42.031a3.748,3.748,0,0,1-2.952-1.417L30.433,41.155a3.776,3.776,0,0,1,0-4.72l10.017-12.18" transform="translate(0 -0.703)" fill="none" stroke="#2962ff" stroke-linecap="round" stroke-miterlimit="10" stroke-width="4"/><path d="M99.508,53.36l-4.855,6.068a3.776,3.776,0,0,0,0,4.72l4.773,5.619" transform="translate(-50.735 -23.697)" fill="none" stroke="#2962ff" stroke-linecap="round" stroke-miterlimit="10" stroke-width="4"/><path d="M163.608,46.6l-4.725-5.619a3.777,3.777,0,0,1,0-4.72l4.855-6.068,3.79-4.739a3.779,3.779,0,0,1,5.9,0l8.645,10.808a3.777,3.777,0,0,1,0,4.72l-8.645,10.808a3.748,3.748,0,0,1-2.952,1.417h-.069" transform="translate(-101.478 -0.527)" fill="none" stroke="#2962ff" stroke-linecap="round" stroke-miterlimit="10" stroke-width="4"/><path d="M94.653,40.452a3.776,3.776,0,0,1,0-4.72l4.855-6.068,5.349-6.3" transform="translate(-50.735 0)" fill="none" stroke="#2962ff" stroke-linecap="round" stroke-miterlimit="10" stroke-width="4"/><path d="M120.89,133.64" transform="translate(-72.117 -87.119)" fill="none" stroke="#2962ff" stroke-miterlimit="10" stroke-width="4"/><line x1="13.485" transform="translate(55.446 52.677)" fill="none" stroke="#2962ff" stroke-miterlimit="10" stroke-width="4"/><path d="M47.5,23.5" transform="translate(-14.137 -0.107)" fill="none" stroke="#2962ff" stroke-linecap="round" stroke-miterlimit="10" stroke-width="4"/><path d="M216.5,23.5" transform="translate(-147.651 -0.107)" fill="none" stroke="#2962ff" stroke-linecap="round" stroke-miterlimit="10" stroke-width="4"/></g></svg>