<svg xmlns="http://www.w3.org/2000/svg" width="1670.024" height="1303.141" viewBox="0 0 1670.024 1303.141"><g transform="matrix(0.995, -0.105, 0.105, 0.995, -31.474, 99.766)" opacity="0.4"><g transform="translate(8.974 10.822)" opacity="0.53"><g transform="translate(0.643 481.354)"><path d="M-16.786-23.62l558.351,155.2Z" transform="translate(16.786 23.62)" fill="#fff"/><path d="M-16.786-23.62,541.735,130.972l-.34,1.232Zm0,0L541.735,130.972a.619.619,0,0,1,.442.79.633.633,0,0,1-.782.442Z" transform="translate(16.786 23.62)" fill="#6b6062"/></g><g transform="translate(1439.477 260.052)"><path d="M318.689,478.622,152.6-49.586Z" transform="translate(-151.959 50.222)" fill="#fff"/><path d="M319.253,479.183,152.552-48.838l1.224-.374Zm0,0L152.552-48.838a.642.642,0,0,1,.417-.79.629.629,0,0,1,.807.416Z" transform="translate(-152.524 49.661)" fill="#6b6062"/></g><g transform="translate(0 204.906)"><path d="M366.332-56.15-16.786,220.3Z" transform="translate(17.429 56.15)" fill="#fff"/><path d="M366.9-56.15-15.854,220.816l-.739-1.045Zm0,0L-15.854,220.816a.622.622,0,0,1-.884-.144.643.643,0,0,1,.144-.9Z" transform="translate(16.862 56.15)" fill="#6b6062"/></g><g transform="translate(1440.279 864.39)"><g transform="translate(0 0)"><path d="M152.618,481.749,200.429,21.527Z" transform="translate(-152.618 -20.893)" fill="#fff"/><path d="M152.618,482.308,199.783,22.026l1.275.127Zm0,0L199.783,22.026a.639.639,0,0,1,.705-.569.622.622,0,0,1,.569.7Z" transform="translate(-152.618 -21.452)" fill="#6b6062"/></g></g><g transform="translate(383.76 204.906)"><g transform="translate(0)"><path d="M28.3-56.15l180.3,416.992Z" transform="translate(-28.296 56.15)" fill="#fff"/><path d="M28.3-56.15,209.181,360.578l-1.173.51Zm0,0L209.181,360.578a.648.648,0,0,1-.331.858.68.68,0,0,1-.841-.34Z" transform="translate(-28.296 56.15)" fill="#6b6062"/></g></g><g transform="translate(465.481 491.806)"><g transform="translate(0 0)"><path d="M180.9-22.39,37.988,391.007Z" transform="translate(-37.343 22.39)" fill="#fff"/><path d="M181.472-22.39,39.16,391.219l-1.215-.425Zm0,0L39.16,391.219a.63.63,0,0,1-.816.382.637.637,0,0,1-.4-.807Z" transform="translate(-37.912 22.39)" fill="#6b6062"/></g></g><g transform="translate(0.003 480.711)"><path d="M329.475,233.112-16.786-23.62Z" transform="translate(17.425 24.263)" fill="#fff"/><path d="M330.039,233.679-16.6-22.543l.765-1.028Zm0,0L-16.6-22.543a.646.646,0,0,1-.136-.892.65.65,0,0,1,.9-.136Z" transform="translate(16.861 23.696)" fill="#6b6062"/></g><g transform="translate(1440.117 260.688)"><path d="M152.6-49.586l173.619,337.44Z" transform="translate(-152.599 49.586)" fill="#fff"/><path d="M152.6-49.586,326.787,287.556l-1.147.595Zm0,0L326.787,287.556a.646.646,0,0,1-1.147.595Z" transform="translate(-152.599 49.586)" fill="#6b6062"/></g><g transform="translate(383.126 204.271)"><path d="M253.576,230.751,28.3-56.15Z" transform="translate(-27.662 56.785)" fill="#fff"/><path d="M254.135,231.311,28.362-55.191l1-.782Zm0,0L28.362-55.191a.627.627,0,0,1,.1-.892.628.628,0,0,1,.892.1Z" transform="translate(-28.221 56.225)" fill="#6b6062"/></g><g transform="translate(576.509)"><g transform="translate(0)"><path d="M50.977,94.01l252.568-174.2Z" transform="translate(-50.977 80.821)" fill="#fff"/><path d="M50.977,94.569,303.171-80.146l.731,1.054Zm0,0L303.171-80.146a.658.658,0,0,1,.9.153.655.655,0,0,1-.161.892Z" transform="translate(-50.977 80.262)" fill="#6b6062"/></g></g><g transform="translate(465.481 863.001)"><g transform="translate(0 0)"><path d="M314.453,21.289,37.988,63.491Z" transform="translate(-37.344 -21.289)" fill="#fff"/><path d="M315.021,21.289,38.65,64.112l-.2-1.249Zm0,0L38.65,64.112a.632.632,0,1,1-.2-1.249Z" transform="translate(-37.912 -21.289)" fill="#6b6062"/></g></g><g transform="translate(1196.498 1291.075)"><g transform="translate(0 0)"><path d="M123.932,71.661l243.781,34.171Z" transform="translate(-123.932 -71.661)" fill="#fff"/><path d="M123.932,71.661,367.8,105.2l-.162,1.258Zm0,0L367.8,105.2a.65.65,0,0,1,.552.731.626.626,0,0,1-.714.527Z" transform="translate(-123.932 -71.661)" fill="#6b6062"/></g></g><g transform="translate(1375.575 718.329)"><g transform="translate(0 0)"><path d="M375.076,74.272l-230-69.932Z" transform="translate(-144.444 -3.704)" fill="#fff"/><path d="M375.636,74.833,145.453,5.521a.644.644,0,0,1,.374-1.232Zm0,0L145.453,5.521l.374-1.232Z" transform="translate(-145.004 -4.265)" fill="#6b6062"/></g></g><g transform="translate(346.266 647.452)"><g transform="translate(0 0)"><path d="M232.285-4.075,23.959,86.559Z" transform="translate(-23.322 4.075)" fill="#fff"/><path d="M232.847-4.075,24.776,87.154l-.51-1.181Zm0,0L24.776,87.154a.66.66,0,0,1-.841-.331.653.653,0,0,1,.331-.85Z" transform="translate(-23.884 4.075)" fill="#6b6062"/></g></g><g transform="translate(1440.117 52.454)"><path d="M152.6,133.581l19.648-207.6Z" transform="translate(-152.599 74.653)" fill="#fff"/><path d="M152.6,134.145,171.61-73.51l1.283.119Zm0,0L171.61-73.51a.638.638,0,0,1,.688-.578.631.631,0,0,1,.586.688Z" transform="translate(-152.599 74.089)" fill="#6b6062"/></g><g transform="translate(1605.568 598.128)"><g transform="translate(0 0)"><path d="M179.672-9.879,172.143,180.89Z" transform="translate(-171.505 9.879)" fill="#fff"/><path d="M180.236-9.879l-6.892,190.794-1.275-.06Zm0,0-6.892,190.794a.638.638,0,1,1-1.275-.06Z" transform="translate(-172.068 9.879)" fill="#6b6062"/></g></g><g transform="translate(1488.09 788.253)"><g transform="translate(0 0)"><path d="M158.244,88.7,276.361,12.569Z" transform="translate(-158.244 -11.926)" fill="#fff"/><path d="M158.244,89.264,276.021,12.593l.68,1.079Zm0,0L276.021,12.593a.642.642,0,0,1,.875.187.625.625,0,0,1-.187.884Z" transform="translate(-158.244 -12.493)" fill="#6b6062"/></g></g></g><path d="M50.755-3.686a10.033,10.033,0,1,1-.161,14.192A10.036,10.036,0,0,1,50.755-3.686Z" transform="translate(510.202 643.892)" fill="gray" opacity="0.417"/><path d="M-15.146-22.126a8.971,8.971,0,0,1,12.671.144A8.956,8.956,0,0,1-2.611-9.311,8.966,8.966,0,0,1-15.29-9.447,8.974,8.974,0,0,1-15.146-22.126Z" transform="translate(18.49 507.894)" fill="gray" opacity="0.484"/><path d="M154.319-48.006a9.413,9.413,0,0,1,13.317.144,9.4,9.4,0,0,1-.17,13.3,9.4,9.4,0,0,1-13.291-.144A9.407,9.407,0,0,1,154.319-48.006Z" transform="translate(1288.195 312.786)" fill="gray" opacity="0.246"/><path d="M173.805,14.09a9.1,9.1,0,1,1-.136,12.858A9.11,9.11,0,0,1,173.805,14.09Z" transform="translate(1435.01 779.118)" fill="gray" opacity="0.391"/><path d="M153.846,76.809a6.716,6.716,0,1,1-.1,9.493A6.707,6.707,0,0,1,153.846,76.809Z" transform="translate(1290.715 1254.457)" fill="gray" opacity="0.489"/><path d="M-15.015-22.015a9.608,9.608,0,0,1,13.58.153,9.615,9.615,0,0,1-.153,13.58,9.6,9.6,0,0,1-13.6-.144A9.6,9.6,0,0,1-15.015-22.015Z" transform="translate(17.918 507.324)" fill="gray" opacity="0.268"/><path d="M30.055-54.55a9.579,9.579,0,0,1,13.538.153A9.579,9.579,0,0,1,43.44-40.86,9.589,9.589,0,0,1,29.894-41,9.582,9.582,0,0,1,30.055-54.55Z" transform="translate(355.991 263.437)" fill="gray" opacity="0.186"/><path d="M160.208,23.312a10.721,10.721,0,1,1-.178,15.161A10.746,10.746,0,0,1,160.208,23.312Z" transform="translate(1329.36 844.868)" fill="gray" opacity="0.152"/><path d="M154.209,77.144a8.672,8.672,0,1,1-.136,12.263A8.666,8.666,0,0,1,154.209,77.144Z" transform="translate(1288.984 1252.729)" fill="gray" opacity="0.323"/><path d="M154.277,77.2a9.026,9.026,0,1,1-.145,12.764A9.017,9.017,0,0,1,154.277,77.2Z" transform="translate(1288.67 1252.415)" fill="gray" opacity="0.399"/><path d="M25.476,7.979a8.29,8.29,0,1,1-.127,11.728A8.3,8.3,0,0,1,25.476,7.979Z" transform="translate(324.605 734.997)" fill="gray" opacity="0.416"/><path d="M56.171-21.153a7.448,7.448,0,0,1,10.529.136A7.445,7.445,0,0,1,66.59-10.5a7.458,7.458,0,0,1-10.538-.11A7.461,7.461,0,0,1,56.171-21.153Z" transform="translate(556.634 518.453)" fill="gray" opacity="0.128"/><path d="M51.228-5.511a9.39,9.39,0,1,1-.144,13.274A9.392,9.392,0,0,1,51.228-5.511Z" transform="translate(515.244 631.517)" fill="gray" opacity="0.255"/><path d="M29.975-54.618a9.174,9.174,0,0,1,12.985.161,9.174,9.174,0,0,1-.136,12.985,9.185,9.185,0,0,1-12.994-.153A9.2,9.2,0,0,1,29.975-54.618Z" transform="translate(356.335 263.776)" fill="gray" opacity="0.181"/><path d="M40.09,28.177a11.487,11.487,0,1,1-.187,16.24A11.487,11.487,0,0,1,40.09,28.177Z" transform="translate(426.978 879.639)" fill="gray" opacity="0.434"/><path d="M56.463-20.887a9.008,9.008,0,0,1,12.739.153A9,9,0,0,1,69.049-8,9.007,9.007,0,0,1,56.31-8.131,9.02,9.02,0,0,1,56.463-20.887Z" transform="translate(555.254 517.073)" fill="gray" opacity="0.126"/><path d="M82.19-78.828a8.12,8.12,0,0,1,11.481.127,8.12,8.12,0,0,1-.136,11.481,8.12,8.12,0,0,1-11.481-.127A8.113,8.113,0,0,1,82.19-78.828Z" transform="translate(750.184 84.479)" fill="gray" opacity="0.208"/><path d="M-15.561-22.511a6.666,6.666,0,0,1,9.416.11,6.673,6.673,0,0,1-.1,9.416,6.668,6.668,0,0,1-9.425-.093A6.671,6.671,0,0,1-15.561-22.511Z" transform="translate(20.521 509.919)" fill="gray" opacity="0.199"/><path d="M25.772,8.249a9.922,9.922,0,1,1-.144,14.022A9.92,9.92,0,0,1,25.772,8.249Z" transform="translate(323.171 733.563)" fill="gray" opacity="0.388"/><path d="M82.791-78.272A11.462,11.462,0,0,1,99-78.085,11.434,11.434,0,0,1,98.8-61.9a11.449,11.449,0,0,1-16.189-.17A11.469,11.469,0,0,1,82.791-78.272Z" transform="translate(747.245 81.535)" fill="gray" opacity="0.302"/><path d="M30.059-54.544a9.587,9.587,0,0,1,13.563.153,9.6,9.6,0,0,1-.144,13.572,9.607,9.607,0,0,1-13.58-.144A9.608,9.608,0,0,1,30.059-54.544Z" transform="translate(355.97 263.413)" fill="gray" opacity="0.127"/><path d="M72.051,22.679a8.341,8.341,0,1,1-.136,11.787A8.325,8.325,0,0,1,72.051,22.679Z" transform="translate(673.683 845.187)" fill="gray" opacity="0.282"/><path d="M56.043-21.267a6.725,6.725,0,0,1,9.51.11,6.725,6.725,0,0,1-.11,9.51,6.735,6.735,0,0,1-9.518-.093A6.745,6.745,0,0,1,56.043-21.267Z" transform="translate(557.272 519.085)" fill="gray" opacity="0.111"/><path d="M173.777,14.068a8.912,8.912,0,1,1-.144,12.594A8.9,8.9,0,0,1,173.777,14.068Z" transform="translate(1435.174 779.277)" fill="gray" opacity="0.439"/><path d="M174.959-8.124a10.534,10.534,0,0,1,14.889.178,10.531,10.531,0,0,1-.17,14.88,10.515,10.515,0,0,1-14.881-.17A10.518,10.518,0,0,1,174.959-8.124Z" transform="translate(1440.391 609.544)" fill="gray" opacity="0.183"/><path d="M154.342-47.985a9.548,9.548,0,0,1,13.512.153,9.528,9.528,0,0,1-.162,13.5,9.525,9.525,0,0,1-13.487-.153A9.535,9.535,0,0,1,154.342-47.985Z" transform="translate(1288.069 312.663)" fill="gray" opacity="0.16"/><path d="M146.533,5.668a7.924,7.924,0,1,1-.127,11.2A7.923,7.923,0,0,1,146.533,5.668Z" transform="translate(1233.11 718.458)" fill="gray" opacity="0.177"/><path d="M30.274-54.352a10.739,10.739,0,0,1,15.186.17A10.756,10.756,0,0,1,45.3-38.987a10.769,10.769,0,0,1-15.212-.17A10.741,10.741,0,0,1,30.274-54.352Z" transform="translate(354.956 262.406)" fill="gray" opacity="0.202"/><path d="M56.522-20.829a9.336,9.336,0,0,1,13.215.161,9.336,9.336,0,0,1-.144,13.215A9.354,9.354,0,0,1,56.369-7.6,9.356,9.356,0,0,1,56.522-20.829Z" transform="translate(554.957 516.77)" fill="gray" opacity="0.366"/><path d="M146.758,5.876a9.153,9.153,0,1,1-.144,12.934A9.153,9.153,0,0,1,146.758,5.876Z" transform="translate(1232.027 717.375)" fill="gray" opacity="0.275"/><path d="M39.658,27.787A9.1,9.1,0,1,1,39.5,40.653,9.094,9.094,0,0,1,39.658,27.787Z" transform="translate(429.076 881.737)" fill="gray" opacity="0.284"/><path d="M146.643,5.759a8.5,8.5,0,1,1-.144,12.025A8.515,8.515,0,0,1,146.643,5.759Z" transform="translate(1232.601 717.951)" fill="gray" opacity="0.434"/><path d="M82.5-78.544a9.849,9.849,0,0,1,13.92.161,9.831,9.831,0,0,1-.162,13.912,9.838,9.838,0,0,1-13.912-.153A9.841,9.841,0,0,1,82.5-78.544Z" transform="translate(748.667 82.963)" fill="gray" opacity="0.404"/><path d="M52.744-58.078a9.661,9.661,0,0,1,13.657.161,9.661,9.661,0,0,1-.153,13.657,9.661,9.661,0,0,1-13.657-.153A9.672,9.672,0,0,1,52.744-58.078Z" transform="translate(525.983 236.822)" fill="gray" opacity="0.202"/><path d="M30.112-54.491a9.915,9.915,0,0,1,14.014.153,9.908,9.908,0,0,1-.161,14.014,9.915,9.915,0,0,1-14.014-.144A9.926,9.926,0,0,1,30.112-54.491Z" transform="translate(355.697 263.14)" fill="gray" opacity="0.14"/><path d="M39.686,27.805a9.318,9.318,0,1,1-.136,13.164A9.331,9.331,0,0,1,39.686,27.805Z" transform="translate(428.895 881.557)" fill="gray" opacity="0.427"/><path d="M72.033,22.66A8.254,8.254,0,1,1,71.9,34.328,8.251,8.251,0,0,1,72.033,22.66Z" transform="translate(673.761 845.265)" fill="gray" opacity="0.422"/><path d="M125.236,72.844a7.091,7.091,0,1,1-.128,10.028A7.1,7.1,0,0,1,125.236,72.844Z" transform="translate(1075.281 1223.987)" fill="gray" opacity="0.136"/><path d="M156.488-72.575a8.607,8.607,0,0,1,12.178.144,8.6,8.6,0,0,1-.136,12.17,8.618,8.618,0,0,1-12.186-.127A8.633,8.633,0,0,1,156.488-72.575Z" transform="translate(1306.226 130.329)" fill="gray" opacity="0.137"/><path d="M156.547-72.523a8.915,8.915,0,0,1,12.611.144,8.923,8.923,0,0,1-.145,12.611A8.915,8.915,0,0,1,156.4-59.9,8.925,8.925,0,0,1,156.547-72.523Z" transform="translate(1305.954 130.055)" fill="gray" opacity="0.483"/><path d="M39.522,27.663A8.374,8.374,0,1,1,39.386,39.5,8.358,8.358,0,0,1,39.522,27.663Z" transform="translate(429.722 882.379)" fill="gray" opacity="0.221"/><path d="M154.389-47.944a9.849,9.849,0,0,1,13.92.161,9.839,9.839,0,0,1-.161,13.912,9.833,9.833,0,0,1-13.895-.161A9.846,9.846,0,0,1,154.389-47.944Z" transform="translate(1287.819 312.409)" fill="gray" opacity="0.373"/><path d="M159.714,22.859a7.939,7.939,0,1,1-.145,11.243A7.928,7.928,0,0,1,159.714,22.859Z" transform="translate(1331.801 847.31)" fill="gray" opacity="0.162"/><path d="M153.8,76.771a6.454,6.454,0,1,1-.1,9.127A6.46,6.46,0,0,1,153.8,76.771Z" transform="translate(1290.937 1254.682)" fill="gray" opacity="0.308"/><path d="M125.526,73.116a8.708,8.708,0,1,1-.136,12.305A8.717,8.717,0,0,1,125.526,73.116Z" transform="translate(1073.861 1222.56)" fill="gray" opacity="0.478"/><path d="M71.992,22.631a8.029,8.029,0,1,1-.136,11.354A8.035,8.035,0,0,1,71.992,22.631Z" transform="translate(673.955 845.456)" fill="gray" opacity="0.431"/><path d="M146.891,5.992a9.883,9.883,0,1,1-.162,13.98A9.879,9.879,0,0,1,146.891,5.992Z" transform="translate(1231.384 716.733)" fill="gray" opacity="0.335"/><path d="M174.064,14.337a10.526,10.526,0,1,1-.161,14.88A10.538,10.538,0,0,1,174.064,14.337Z" transform="translate(1433.749 777.852)" fill="gray" opacity="0.256"/><path d="M56.666-20.69A10.128,10.128,0,0,1,71-20.529,10.138,10.138,0,0,1,70.85-6.184,10.146,10.146,0,0,1,56.5-6.354,10.128,10.128,0,0,1,56.666-20.69Z" transform="translate(554.26 516.07)" fill="gray" opacity="0.183"/><path d="M125.988,73.535a11.172,11.172,0,1,1-.187,15.79A11.159,11.159,0,0,1,125.988,73.535Z" transform="translate(1071.683 1220.381)" fill="gray" opacity="0.496"/><path d="M147,6.1a10.49,10.49,0,1,1-.17,14.829A10.492,10.492,0,0,1,147,6.1Z" transform="translate(1230.848 716.196)" fill="gray" opacity="0.433"/><path d="M25.761,8.236a9.859,9.859,0,1,1-.153,13.946A9.856,9.856,0,0,1,25.761,8.236Z" transform="translate(323.224 733.618)" fill="gray" opacity="0.294"/><path d="M49.955-2.723A8.071,8.071,0,1,1,49.827,8.69,8.069,8.069,0,0,1,49.955-2.723Z" transform="translate(508.606 655.227)" fill="gray" opacity="0.372"/><path d="M156.5-72.563a8.661,8.661,0,0,1,12.255.136,8.679,8.679,0,0,1-.136,12.263,8.679,8.679,0,0,1-12.263-.136A8.671,8.671,0,0,1,156.5-72.563Z" transform="translate(1306.176 130.274)" fill="gray" opacity="0.207"/><path d="M154.314-48.016a9.369,9.369,0,0,1,13.249.144,9.377,9.377,0,0,1-.153,13.249,9.367,9.367,0,0,1-13.24-.161A9.348,9.348,0,0,1,154.314-48.016Z" transform="translate(1288.233 312.83)" fill="gray" opacity="0.29"/><path d="M72.076,22.7a8.455,8.455,0,1,1-.144,11.966A8.456,8.456,0,0,1,72.076,22.7Z" transform="translate(673.573 845.077)" fill="gray" opacity="0.414"/><path d="M56.425-20.915A8.82,8.82,0,0,1,68.9-20.77,8.818,8.818,0,0,1,68.747-8.3,8.81,8.81,0,0,1,56.28-8.439,8.82,8.82,0,0,1,56.425-20.915Z" transform="translate(555.428 517.237)" fill="gray" opacity="0.485"/><path d="M173.476,13.792a7.284,7.284,0,1,1-.111,10.3A7.289,7.289,0,0,1,173.476,13.792Z" transform="translate(1436.605 780.717)" fill="gray" opacity="0.21"/><path d="M174.527-8.516a8.135,8.135,0,0,1,11.507.127A8.143,8.143,0,0,1,185.9,3.118a8.135,8.135,0,0,1-11.507-.127A8.128,8.128,0,0,1,174.527-8.516Z" transform="translate(1442.498 611.653)" fill="gray" opacity="0.422"/><path d="M82.51-78.525a9.879,9.879,0,0,1,14,.161,9.892,9.892,0,0,1-.153,13.988,9.9,9.9,0,0,1-14.005-.153A9.9,9.9,0,0,1,82.51-78.525Z" transform="translate(748.615 82.91)" fill="gray" opacity="0.472"/><path d="M173.9,14.178a9.621,9.621,0,1,1-.153,13.606A9.623,9.623,0,0,1,173.9,14.178Z" transform="translate(1434.548 778.657)" fill="gray" opacity="0.352"/><path d="M159.98,23.1a9.438,9.438,0,1,1-.161,13.359A9.446,9.446,0,0,1,159.98,23.1Z" transform="translate(1330.481 845.994)" fill="gray" opacity="0.215"/></g></svg>